<?xml version="1.0" encoding="UTF-8"?><svg id="Layer_2" xmlns="http://www.w3.org/2000/svg" viewBox="0 0 700.84 207.24"><defs><style>.cls-1{fill:#fa6f65;}.cls-2{fill:#333;}</style></defs><g id="Layer_2-2"><path class="cls-2" d="m388.02,121.96v62.08c0,11.63-9.43,21.05-21.05,21.05h0c-11.63,0-21.05-9.43-21.05-21.05v-55.6c0-23.48-10.8-34.28-29.42-34.28-20.24,0-34.82,12.42-34.82,39.14v50.74c0,11.63-9.43,21.05-21.05,21.05h0c-11.63,0-21.05-9.43-21.05-21.05v-107.15c0-9.39,7.61-17,17-17h6.21c9.39,0,17,7.61,17,17h0c11.34-12.42,28.34-19.16,48.04-19.16,34.28,0,60.19,19.97,60.19,64.24h0Z"/><path class="cls-2" d="m514.23,183.65c3.54,9.28-1.96,19.5-11.64,21.73-5.42,1.25-11.25,1.86-17.13,1.86-34.28,0-54.25-17.54-54.25-52.09v-62.86h-6.21c-8.94,0-16.19-7.25-16.19-16.19h0c0-8.94,7.25-16.19,16.19-16.19h6.21v-11.1c0-11.63,9.43-21.05,21.05-21.05h0c11.63,0,21.05,9.43,21.05,21.05v11.1h19.97c8.94,0,16.19,7.25,16.19,16.19h0c0,8.94-7.25,16.19-16.19,16.19h-19.97v62.32c0,12.42,6.75,19.16,18.08,19.16,1.64,0,3.29-.13,4.9-.39,7.67-1.24,15.16,3.01,17.93,10.27h.01Z"/><path class="cls-2" d="m640.05,77.71h0c0,9.59-7.49,17.55-17.07,18.05-7.44.39-15.96,2.04-22.79,6.79-9.2,6.39-14.6,17.53-14.6,33.98v47.5c0,11.63-9.43,21.05-21.05,21.05h0c-11.63,0-21.05-9.43-21.05-21.05v-104.99c0-10.58,8.58-19.16,19.16-19.16h1.89c10.58,0,19.16,8.58,19.16,19.16h0c6.92-9.47,19.42-19.19,34.61-19.03,11.46.12,21.74,6.25,21.74,17.7Z"/><path class="cls-2" d="m679.79,0h0c11.63,0,21.05,9.43,21.05,21.05v162.97c0,11.63-9.43,21.05-21.05,21.05h0c-11.63,0-21.05-9.43-21.05-21.05V21.06C658.74,9.43,668.17.01,679.79.01h0Z"/><path class="cls-2" d="m102.62,205.24C46.04,205.24,0,159.21,0,102.62S46.03,0,102.62,0s102.62,46.03,102.62,102.62c0,12.01-9.74,21.75-21.75,21.75s-21.75-9.74-21.75-21.75c0-32.6-26.52-59.11-59.11-59.11s-59.11,26.52-59.11,59.11,26.52,59.11,59.11,59.11c12.01,0,21.75,9.74,21.75,21.75s-9.74,21.75-21.75,21.75h0Z"/><path class="cls-1" d="m146.81,115.43l49.15,49.15c8.49,8.49,8.5,22.26,0,30.76h0c-8.49,8.49-22.26,8.49-30.76,0l-49.15-49.15c-8.49-8.49-8.5-22.26,0-30.76h0c8.49-8.49,22.26-8.49,30.76,0Z"/></g></svg>